<?xml version="1.0" encoding="UTF-8" standalone="no"?>
<!DOCTYPE svg PUBLIC "-//W3C//DTD SVG 1.1//EN"
 "http://www.w3.org/Graphics/SVG/1.1/DTD/svg11.dtd">
<!-- Generated by graphviz version 2.50.0 (0)
 -->
<!-- Pages: 1 -->
<svg width="273pt" height="332pt"
 viewBox="0.00 0.00 272.98 332.00" xmlns="http://www.w3.org/2000/svg" xmlns:xlink="http://www.w3.org/1999/xlink">
<g id="graph0" class="graph" transform="scale(1 1) rotate(0) translate(4 328)">
<polygon fill="white" stroke="transparent" points="-4,4 -4,-328 268.98,-328 268.98,4 -4,4"/>
<!-- A -->
<g id="node1" class="node">
<title>A</title>
<ellipse fill="none" stroke="black" cx="78.11" cy="-306" rx="27" ry="18"/>
<text text-anchor="middle" x="78.11" y="-302.3" font-family="Times New Roman,serif" font-size="14.00">A</text>
</g>
<!-- D -->
<g id="node2" class="node">
<title>D</title>
<ellipse fill="none" stroke="black" cx="78.11" cy="-234" rx="27" ry="18"/>
<text text-anchor="middle" x="78.11" y="-230.3" font-family="Times New Roman,serif" font-size="14.00">D</text>
</g>
<!-- A&#45;&#45;D -->
<g id="edge1" class="edge">
<title>A&#45;&#45;D</title>
<path fill="none" stroke="black" d="M78.11,-287.7C78.11,-276.85 78.11,-262.92 78.11,-252.1"/>
</g>
<!-- G -->
<g id="node4" class="node">
<title>G</title>
<ellipse fill="none" stroke="black" cx="178.11" cy="-90" rx="27" ry="18"/>
<text text-anchor="middle" x="178.11" y="-86.3" font-family="Times New Roman,serif" font-size="14.00">G</text>
</g>
<!-- D&#45;&#45;G -->
<g id="edge7" class="edge">
<title>D&#45;&#45;G</title>
<path fill="none" stroke="black" d="M82.52,-216.04C88,-197.17 98.69,-166.4 115.11,-144 127.28,-127.4 145.69,-112.71 159.47,-103.03"/>
</g>
<!-- E -->
<g id="node6" class="node">
<title>E</title>
<ellipse fill="none" stroke="black" cx="151.11" cy="-162" rx="27" ry="18"/>
<text text-anchor="middle" x="151.11" y="-158.3" font-family="Times New Roman,serif" font-size="14.00">E</text>
</g>
<!-- D&#45;&#45;E -->
<g id="edge8" class="edge">
<title>D&#45;&#45;E</title>
<path fill="none" stroke="black" d="M92.88,-218.83C105.55,-206.69 123.7,-189.28 136.36,-177.14"/>
</g>
<!-- F -->
<g id="node7" class="node">
<title>F</title>
<ellipse fill="none" stroke="black" cx="41.11" cy="-162" rx="27" ry="18"/>
<text text-anchor="middle" x="41.11" y="-158.3" font-family="Times New Roman,serif" font-size="14.00">F</text>
</g>
<!-- D&#45;&#45;F -->
<g id="edge5" class="edge">
<title>D&#45;&#45;F</title>
<path fill="none" stroke="black" d="M69.53,-216.76C63.55,-205.46 55.61,-190.44 49.65,-179.15"/>
</g>
<!-- H -->
<g id="node8" class="node">
<title>H</title>
<ellipse fill="none" stroke="black" cx="123.11" cy="-18" rx="27" ry="18"/>
<text text-anchor="middle" x="123.11" y="-14.3" font-family="Times New Roman,serif" font-size="14.00">H</text>
</g>
<!-- D&#45;&#45;H -->
<g id="edge6" class="edge">
<title>D&#45;&#45;H</title>
<path fill="none" stroke="black" d="M55.72,-223.69C38.39,-215.14 15.64,-200.65 5.11,-180 -2.16,-165.75 -0.8,-158.87 5.11,-144 25.28,-93.25 76.91,-51.18 104.72,-31.32"/>
</g>
<!-- B -->
<g id="node3" class="node">
<title>B</title>
<ellipse fill="none" stroke="black" cx="223.11" cy="-162" rx="27" ry="18"/>
<text text-anchor="middle" x="223.11" y="-158.3" font-family="Times New Roman,serif" font-size="14.00">B</text>
</g>
<!-- B&#45;&#45;G -->
<g id="edge2" class="edge">
<title>B&#45;&#45;G</title>
<path fill="none" stroke="black" d="M212.9,-145.12C205.53,-133.66 195.64,-118.26 188.28,-106.82"/>
</g>
<!-- G&#45;&#45;H -->
<g id="edge11" class="edge">
<title>G&#45;&#45;H</title>
<path fill="none" stroke="black" d="M166.18,-73.81C156.95,-62.07 144.24,-45.89 135.02,-34.16"/>
</g>
<!-- C -->
<g id="node5" class="node">
<title>C</title>
<ellipse fill="none" stroke="black" cx="169.11" cy="-234" rx="27" ry="18"/>
<text text-anchor="middle" x="169.11" y="-230.3" font-family="Times New Roman,serif" font-size="14.00">C</text>
</g>
<!-- C&#45;&#45;G -->
<g id="edge3" class="edge">
<title>C&#45;&#45;G</title>
<path fill="none" stroke="black" d="M193.57,-226.15C215.11,-218.68 245.16,-204.4 259.11,-180 267.05,-166.11 266.72,-158.07 259.11,-144 247.04,-121.68 221.03,-107.25 201.72,-99.17"/>
</g>
<!-- C&#45;&#45;E -->
<g id="edge4" class="edge">
<title>C&#45;&#45;E</title>
<path fill="none" stroke="black" d="M164.75,-216.05C161.92,-205.05 158.25,-190.76 155.43,-179.79"/>
</g>
<!-- E&#45;&#45;G -->
<g id="edge10" class="edge">
<title>E&#45;&#45;G</title>
<path fill="none" stroke="black" d="M157.51,-144.41C161.75,-133.41 167.3,-119.03 171.57,-107.96"/>
</g>
<!-- E&#45;&#45;H -->
<g id="edge9" class="edge">
<title>E&#45;&#45;H</title>
<path fill="none" stroke="black" d="M147.73,-143.87C142.35,-116.58 131.89,-63.52 126.5,-36.19"/>
</g>
</g>
</svg>
