<?xml version="1.0" encoding="UTF-8" standalone="no"?>
<!DOCTYPE svg PUBLIC "-//W3C//DTD SVG 1.1//EN"
 "http://www.w3.org/Graphics/SVG/1.1/DTD/svg11.dtd">
<!-- Generated by graphviz version 2.50.0 (0)
 -->
<!-- Pages: 1 -->
<svg width="180pt" height="404pt"
 viewBox="0.00 0.00 180.49 404.00" xmlns="http://www.w3.org/2000/svg" xmlns:xlink="http://www.w3.org/1999/xlink">
<g id="graph0" class="graph" transform="scale(1 1) rotate(0) translate(4 400)">
<polygon fill="white" stroke="transparent" points="-4,4 -4,-400 176.49,-400 176.49,4 -4,4"/>
<!-- A -->
<g id="node1" class="node">
<title>A</title>
<ellipse fill="none" stroke="black" cx="79.49" cy="-306" rx="27" ry="18"/>
<text text-anchor="middle" x="79.49" y="-302.3" font-family="Times New Roman,serif" font-size="14.00">A</text>
</g>
<!-- C -->
<g id="node2" class="node">
<title>C</title>
<ellipse fill="none" stroke="black" cx="79.49" cy="-234" rx="27" ry="18"/>
<text text-anchor="middle" x="79.49" y="-230.3" font-family="Times New Roman,serif" font-size="14.00">C</text>
</g>
<!-- A&#45;&gt;C -->
<g id="edge1" class="edge">
<title>A&#45;&gt;C</title>
<path fill="none" stroke="black" d="M73.65,-288.41C72.79,-280.51 72.54,-270.85 72.9,-261.94"/>
<polygon fill="black" stroke="black" points="76.39,-262.18 73.61,-251.96 69.41,-261.68 76.39,-262.18"/>
</g>
<!-- C&#45;&gt;A -->
<g id="edge3" class="edge">
<title>C&#45;&gt;A</title>
<path fill="none" stroke="black" d="M85.37,-251.96C86.2,-259.83 86.44,-269.37 86.07,-278.19"/>
<polygon fill="black" stroke="black" points="82.56,-278.18 85.33,-288.41 89.54,-278.69 82.56,-278.18"/>
</g>
<!-- E -->
<g id="node5" class="node">
<title>E</title>
<ellipse fill="none" stroke="black" cx="32.49" cy="-162" rx="27" ry="18"/>
<text text-anchor="middle" x="32.49" y="-158.3" font-family="Times New Roman,serif" font-size="14.00">E</text>
</g>
<!-- C&#45;&gt;E -->
<g id="edge4" class="edge">
<title>C&#45;&gt;E</title>
<path fill="none" stroke="black" d="M68.82,-217.12C62.93,-208.34 55.49,-197.26 48.88,-187.42"/>
<polygon fill="black" stroke="black" points="51.59,-185.17 43.11,-178.82 45.78,-189.07 51.59,-185.17"/>
</g>
<!-- B -->
<g id="node3" class="node">
<title>B</title>
<ellipse fill="none" stroke="black" cx="41.49" cy="-90" rx="27" ry="18"/>
<text text-anchor="middle" x="41.49" y="-86.3" font-family="Times New Roman,serif" font-size="14.00">B</text>
</g>
<!-- D -->
<g id="node4" class="node">
<title>D</title>
<ellipse fill="none" stroke="black" cx="96.49" cy="-18" rx="27" ry="18"/>
<text text-anchor="middle" x="96.49" y="-14.3" font-family="Times New Roman,serif" font-size="14.00">D</text>
</g>
<!-- B&#45;&gt;D -->
<g id="edge2" class="edge">
<title>B&#45;&gt;D</title>
<path fill="none" stroke="black" d="M53.42,-73.81C60.7,-64.55 70.15,-52.52 78.34,-42.09"/>
<polygon fill="black" stroke="black" points="81.15,-44.18 84.58,-34.16 75.65,-39.86 81.15,-44.18"/>
</g>
<!-- D&#45;&gt;A -->
<g id="edge7" class="edge">
<title>D&#45;&gt;A</title>
<path fill="none" stroke="black" d="M102.06,-35.85C114.08,-74.86 139.47,-174.03 115.49,-252 112.2,-262.69 105.95,-273.15 99.56,-281.92"/>
<polygon fill="black" stroke="black" points="96.6,-280.02 93.24,-290.07 102.13,-284.31 96.6,-280.02"/>
</g>
<!-- D&#45;&gt;C -->
<g id="edge6" class="edge">
<title>D&#45;&gt;C</title>
<path fill="none" stroke="black" d="M95.12,-36.23C92.17,-73.32 85.21,-160.98 81.66,-205.71"/>
<polygon fill="black" stroke="black" points="78.15,-205.6 80.85,-215.85 85.13,-206.16 78.15,-205.6"/>
</g>
<!-- D&#45;&gt;E -->
<g id="edge5" class="edge">
<title>D&#45;&gt;E</title>
<path fill="none" stroke="black" d="M71.77,-25.77C49.99,-33.18 19.61,-47.43 5.49,-72 -6.27,-92.45 4.19,-118.55 15.33,-137.18"/>
<polygon fill="black" stroke="black" points="12.43,-139.14 20.76,-145.67 18.32,-135.36 12.43,-139.14"/>
</g>
<!-- E&#45;&gt;A -->
<g id="edge9" class="edge">
<title>E&#45;&gt;A</title>
<path fill="none" stroke="black" d="M32.25,-180.3C32.54,-198.66 34.55,-228.25 43.49,-252 47.42,-262.46 53.82,-272.88 60.13,-281.67"/>
<polygon fill="black" stroke="black" points="57.51,-284 66.33,-289.87 63.09,-279.78 57.51,-284"/>
</g>
<!-- E&#45;&gt;B -->
<g id="edge8" class="edge">
<title>E&#45;&gt;B</title>
<path fill="none" stroke="black" d="M34.67,-144.05C35.66,-136.35 36.86,-127.03 37.97,-118.36"/>
<polygon fill="black" stroke="black" points="41.46,-118.64 39.27,-108.28 34.52,-117.75 41.46,-118.64"/>
</g>
<!-- F -->
<g id="node6" class="node">
<title>F</title>
<ellipse fill="none" stroke="black" cx="125.49" cy="-378" rx="27" ry="18"/>
<text text-anchor="middle" x="125.49" y="-374.3" font-family="Times New Roman,serif" font-size="14.00">F</text>
</g>
<!-- F&#45;&gt;A -->
<g id="edge11" class="edge">
<title>F&#45;&gt;A</title>
<path fill="none" stroke="black" d="M115.05,-361.12C109.29,-352.34 102,-341.26 95.53,-331.42"/>
<polygon fill="black" stroke="black" points="98.3,-329.26 89.88,-322.82 92.45,-333.1 98.3,-329.26"/>
</g>
<!-- F&#45;&gt;D -->
<g id="edge10" class="edge">
<title>F&#45;&gt;D</title>
<path fill="none" stroke="black" d="M134.55,-360.96C148.21,-335.23 172.49,-282.78 172.49,-235 172.49,-235 172.49,-235 172.49,-161 172.49,-114.12 139.89,-67.74 117.39,-41.31"/>
<polygon fill="black" stroke="black" points="120.01,-38.98 110.78,-33.77 114.74,-43.6 120.01,-38.98"/>
</g>
</g>
</svg>
