<?xml version="1.0" encoding="UTF-8" standalone="no"?>
<!DOCTYPE svg PUBLIC "-//W3C//DTD SVG 1.1//EN"
 "http://www.w3.org/Graphics/SVG/1.1/DTD/svg11.dtd">
<!-- Generated by graphviz version 2.50.0 (0)
 -->
<!-- Pages: 1 -->
<svg width="202pt" height="305pt"
 viewBox="0.00 0.00 202.00 305.00" xmlns="http://www.w3.org/2000/svg" xmlns:xlink="http://www.w3.org/1999/xlink">
<g id="graph0" class="graph" transform="scale(1 1) rotate(0) translate(4 301)">
<polygon fill="white" stroke="transparent" points="-4,4 -4,-301 198,-301 198,4 -4,4"/>
<!-- A -->
<g id="node1" class="node">
<title>A</title>
<ellipse fill="none" stroke="black" cx="134" cy="-279" rx="27" ry="18"/>
<text text-anchor="middle" x="134" y="-275.3" font-family="Times New Roman,serif" font-size="14.00">A</text>
</g>
<!-- B -->
<g id="node2" class="node">
<title>B</title>
<ellipse fill="none" stroke="black" cx="87" cy="-192" rx="27" ry="18"/>
<text text-anchor="middle" x="87" y="-188.3" font-family="Times New Roman,serif" font-size="14.00">B</text>
</g>
<!-- A&#45;&gt;B -->
<g id="edge1" class="edge">
<title>A&#45;&gt;B</title>
<path fill="none" stroke="black" d="M124.94,-261.61C118.13,-249.3 108.69,-232.23 100.93,-218.19"/>
<polygon fill="black" stroke="black" points="103.78,-216.11 95.87,-209.05 97.65,-219.5 103.78,-216.11"/>
<text text-anchor="middle" x="116.5" y="-231.8" font-family="Times New Roman,serif" font-size="14.00">2</text>
</g>
<!-- C -->
<g id="node3" class="node">
<title>C</title>
<ellipse fill="none" stroke="black" cx="27" cy="-105" rx="27" ry="18"/>
<text text-anchor="middle" x="27" y="-101.3" font-family="Times New Roman,serif" font-size="14.00">C</text>
</g>
<!-- A&#45;&gt;C -->
<g id="edge2" class="edge">
<title>A&#45;&gt;C</title>
<path fill="none" stroke="black" d="M112.35,-267.8C91.3,-256.68 60.19,-236.83 44,-210 29.95,-186.71 26.48,-155.4 26.05,-133.23"/>
<polygon fill="black" stroke="black" points="29.55,-133.16 26.05,-123.16 22.55,-133.16 29.55,-133.16"/>
<text text-anchor="middle" x="47.5" y="-188.3" font-family="Times New Roman,serif" font-size="14.00">5</text>
</g>
<!-- E -->
<g id="node4" class="node">
<title>E</title>
<ellipse fill="none" stroke="black" cx="142" cy="-105" rx="27" ry="18"/>
<text text-anchor="middle" x="142" y="-101.3" font-family="Times New Roman,serif" font-size="14.00">E</text>
</g>
<!-- A&#45;&gt;E -->
<g id="edge3" class="edge">
<title>A&#45;&gt;E</title>
<path fill="none" stroke="black" d="M134.8,-260.88C136.19,-231 139.06,-169.11 140.73,-133.27"/>
<polygon fill="black" stroke="black" points="144.24,-133.2 141.21,-123.05 137.25,-132.88 144.24,-133.2"/>
<text text-anchor="middle" x="141.5" y="-188.3" font-family="Times New Roman,serif" font-size="14.00">9</text>
</g>
<!-- B&#45;&gt;C -->
<g id="edge4" class="edge">
<title>B&#45;&gt;C</title>
<path fill="none" stroke="black" d="M76,-175.41C67.03,-162.71 54.22,-144.56 43.95,-130.01"/>
<polygon fill="black" stroke="black" points="46.56,-127.64 37.94,-121.49 40.84,-131.68 46.56,-127.64"/>
<text text-anchor="middle" x="64.5" y="-144.8" font-family="Times New Roman,serif" font-size="14.00">1</text>
</g>
<!-- B&#45;&gt;E -->
<g id="edge6" class="edge">
<title>B&#45;&gt;E</title>
<path fill="none" stroke="black" d="M97.35,-175.01C105.49,-162.43 116.97,-144.68 126.26,-130.33"/>
<polygon fill="black" stroke="black" points="129.21,-132.21 131.7,-121.92 123.33,-128.41 129.21,-132.21"/>
<text text-anchor="middle" x="120.5" y="-144.8" font-family="Times New Roman,serif" font-size="14.00">5</text>
</g>
<!-- D -->
<g id="node5" class="node">
<title>D</title>
<ellipse fill="none" stroke="black" cx="90" cy="-18" rx="27" ry="18"/>
<text text-anchor="middle" x="90" y="-14.3" font-family="Times New Roman,serif" font-size="14.00">D</text>
</g>
<!-- B&#45;&gt;D -->
<g id="edge5" class="edge">
<title>B&#45;&gt;D</title>
<path fill="none" stroke="black" d="M87.3,-173.88C87.82,-144 88.9,-82.11 89.52,-46.27"/>
<polygon fill="black" stroke="black" points="93.03,-46.11 89.7,-36.05 86.03,-45.99 93.03,-46.11"/>
<text text-anchor="middle" x="92.5" y="-101.3" font-family="Times New Roman,serif" font-size="14.00">4</text>
</g>
<!-- C&#45;&gt;D -->
<g id="edge7" class="edge">
<title>C&#45;&gt;D</title>
<path fill="none" stroke="black" d="M38.56,-88.41C48.06,-75.59 61.67,-57.22 72.51,-42.6"/>
<polygon fill="black" stroke="black" points="75.38,-44.61 78.52,-34.49 69.75,-40.44 75.38,-44.61"/>
<text text-anchor="middle" x="66.5" y="-57.8" font-family="Times New Roman,serif" font-size="14.00">2</text>
</g>
<!-- D&#45;&gt;A -->
<g id="edge8" class="edge">
<title>D&#45;&gt;A</title>
<path fill="none" stroke="black" d="M112.1,-28.82C133.41,-39.64 164.38,-59.27 178,-87 205.38,-142.75 171.34,-216.1 149.56,-253.61"/>
<polygon fill="black" stroke="black" points="146.46,-251.97 144.33,-262.34 152.47,-255.56 146.46,-251.97"/>
<text text-anchor="middle" x="190.5" y="-144.8" font-family="Times New Roman,serif" font-size="14.00">1</text>
</g>
</g>
</svg>
